<svg viewBox="0 0 1588 948" xmlns="http://www.w3.org/2000/svg" xml:space="preserve" style="fill-rule:evenodd;clip-rule:evenodd;stroke-linejoin:round;stroke-miterlimit:2">
  <path d="M0 15.48c-8.582 6.124-14.025 11.927-16.331 17.408-2.381 4.877-3.648 10.263-3.799 16.161h56.307V34.816H.283a18.309 18.309 0 0 1 3.771-4.48c1.493-1.284 4.266-3.364 8.319-6.237l6.477-4.593c5.454-3.856 9.374-7.352 11.759-10.49 3.637-4.725 5.455-10.131 5.455-16.218 0-7.939-2.574-14.318-7.72-19.137-5.147-4.821-12.072-7.23-20.775-7.23-11.012 0-18.675 4.102-22.989 12.304-2.271 4.31-3.539 9.962-3.803 16.955h15.707c.189-4.611.794-7.976 1.815-10.093 1.776-3.667 5.122-5.501 10.036-5.501 3.591 0 6.351 1.154 8.279 3.459 1.928 2.307 2.892 5.198 2.892 8.676 0 4.272-1.682 8.204-5.047 11.794C12.267 6.332 7.447 10.149 0 15.48" style="fill:#fff;fill-rule:nonzero" transform="translate(84.113 139.871) scale(4.16667)"/>
  <path d="M0 82.221h16.558V0H3.062c0 .718-.208 1.814-.622 3.288C1.723 5.746.667 7.712-.728 9.186c-2.036 2.155-4.676 3.592-7.918 4.309-2.037.454-5.6.794-10.69 1.021v11.001H0v56.704Z" style="fill:#fff;fill-rule:nonzero" transform="translate(344.146 1.654) scale(4.16667)"/>
  <path d="M0 .794c-3.214-3.062-8.04-5.349-14.478-6.861-9.657-2.117-15.281-3.61-16.873-4.48-1.593-.831-2.388-2.173-2.388-4.026 0-1.474.748-2.759 2.246-3.856 1.497-1.096 4.008-1.644 7.534-1.644 4.282 0 7.315 1.097 9.098 3.289.947 1.21 1.534 2.854 1.762 4.933H3.062c-.721-7.56-3.515-12.881-8.383-15.962-4.867-3.081-11.166-4.622-18.894-4.622-8.145 0-14.462 2.051-18.952 6.153-4.489 4.102-6.733 9.007-6.733 14.715 0 4.839 1.436 8.543 4.31 11.113 2.872 2.609 7.82 4.783 14.843 6.521 9.756 2.307 15.393 3.933 16.908 4.877 1.514.946 2.271 2.325 2.271 4.14 0 1.89-.94 3.308-2.82 4.252-1.88.946-4.416 1.418-7.607 1.418-5.431 0-9.153-1.077-11.167-3.232-1.139-1.209-1.88-3.251-2.222-6.124h-16.387c0 6.351 2.319 11.577 6.96 15.679 4.64 4.101 11.828 6.152 21.563 6.152 9.545 0 16.599-1.938 21.164-5.812 4.564-3.875 6.847-8.874 6.847-14.998C4.763 7.769 3.175 3.894 0 .794" style="fill:#fff;fill-rule:nonzero" transform="translate(693.921 214.53) scale(4.16667)"/>
  <path d="m0 79.066 7.654-.284V66.705a45.16 45.16 0 0 1-3.175.113c-3.289 0-5.254-.312-5.897-.936-.644-.624-.965-2.202-.965-4.734V28.486H7.654V16.975H-2.383V-.264h-15.99v17.239h-8.619v11.511h8.619v38.048c0 3.856.908 6.711 2.723 8.563 2.796 2.911 8.013 4.233 15.65 3.969" style="fill:#fff;fill-rule:nonzero" transform="translate(849.388 18.346) scale(4.16667)"/>
  <path d="M0 47.972c-2.382 3.402-5.86 5.104-10.434 5.104-4.574 0-7.986-1.71-10.235-5.132-2.249-3.421-3.373-7.986-3.373-13.694 0-5.293 1.105-9.725 3.316-13.298 2.212-3.572 5.68-5.358 10.406-5.358 3.099 0 5.821.983 8.165 2.949C1.663 21.794 3.572 27.2 3.572 34.76c0 5.406-1.191 9.811-3.572 13.212m3.119-37.198c-1.815-2.91-4.178-5.188-7.088-6.832-2.912-1.645-6.238-2.467-9.98-2.467-8.129 0-14.621 3.024-19.478 9.072-4.858 6.049-7.287 14.346-7.287 24.894 0 9.148 2.467 16.642 7.4 22.483 4.934 5.84 11.01 8.76 18.231 8.76 4.384 0 8.052-.831 11-2.494 2.949-1.663 5.576-4.328 7.882-7.996v8.562h15.707v-83.468H3.119v29.486Z" style="fill:#fff;fill-rule:nonzero" transform="translate(169.638 572.126) scale(4.16667)"/>
  <path style="fill:#fff" d="M324.621 288.395h16.388v14.913h-16.388z" transform="translate(-1051.63 -710.088) scale(4.16667)"/>
  <path style="fill:#fff" d="M324.621 219.216h16.388v61.807h-16.388z" transform="translate(-1051.63 -328.988) scale(4.16667)"/>
  <path d="M0 2.892c-2.598 2.854-5.778 4.28-9.542 4.28-5.647 0-9.563-2.608-11.746-7.825-1.205-2.797-1.807-5.99-1.807-9.583 0-4.157.565-7.655 1.695-10.49 2.145-5.33 6.041-7.995 11.689-7.995 4.14 0 7.443 1.531 9.909 4.592 2.466 3.062 3.698 7.524 3.698 13.382C3.896-4.508 2.598.038 0 2.892m4.01-35.355c-2.417-4.348-5.588-7.334-9.514-8.959-2.304-.946-5.002-1.418-8.098-1.418-8.381 0-14.856 3.128-19.425 9.384-4.568 6.256-6.852 13.977-6.852 23.163 0 9.527 2.372 17.079 7.116 22.654 4.744 5.576 11.086 8.364 19.025 8.364 5.14 0 9.318-1.228 12.531-3.687 1.777-1.322 3.44-3.306 4.99-5.953v3.969c0 5.898-.643 10.094-1.928 12.588-1.966 3.895-5.86 5.842-11.681 5.842-4.121 0-7.05-.738-8.789-2.213-1.021-.83-1.758-2.191-2.212-4.082h-17.578c.529 6.162 3.289 10.793 8.279 13.892 4.99 3.1 11.435 4.651 19.336 4.651 13.08 0 21.925-3.479 26.538-10.434 2.684-4.047 4.026-10.056 4.026-18.032v-58.632H4.01v8.903Z" style="fill:#fff;fill-rule:nonzero" transform="translate(572.684 756.772) scale(4.16667)"/>
  <path style="fill:#fff" d="M422.016 219.216h16.388v61.807h-16.388z" transform="translate(-1051.63 -328.988) scale(4.16667)"/>
  <path style="fill:#fff" d="M422.016 288.395h16.388v14.913h-16.388z" transform="translate(-1051.63 -710.088) scale(4.16667)"/>
  <path d="M0-79.594h-15.99v17.238h-8.619v11.512h8.619v38.048c0 3.856.908 6.71 2.722 8.562C-10.471-1.323-5.254 0 2.383-.264l7.654-.284v-12.077c-.529.037-1.068.066-1.615.084-.549.019-1.069.029-1.561.029-3.288 0-5.254-.312-5.896-.936C.321-14.073 0-15.651 0-18.183v-32.661h10.037v-11.512H0v-17.238Z" style="fill:#fff;fill-rule:nonzero" transform="translate(904.238 846.593) scale(4.16667)"/>
  <path d="M0 13.269c-.115 5.406-1.659 9.13-4.635 11.171-2.974 2.041-6.227 3.061-9.759 3.061-2.226 0-4.118-.614-5.67-1.842-1.556-1.229-2.332-3.223-2.332-5.983 0-3.099 1.271-5.386 3.817-6.861 1.503-.869 3.979-1.606 7.429-2.211l3.677-.681c1.84-.341 3.285-.709 4.34-1.106A17.885 17.885 0 0 0 0 7.258v6.011Zm17.183 19.79c-.531-.756-.851-2.192-.964-4.311a269.076 269.076 0 0 1-.114-7.144V-6.748c0-7.447-2.638-12.511-7.916-15.197C2.912-24.628-3.125-25.97-9.92-25.97c-10.441 0-17.807 2.721-22.098 8.165-2.695 3.478-4.214 7.92-4.555 13.325h15.594c.382-2.381 1.149-4.272 2.299-5.67 1.609-1.891 4.349-2.836 8.219-2.836 3.449 0 6.065.483 7.846 1.447C-.834-10.576.059-8.826.059-6.294c0 2.08-1.163 3.611-3.486 4.593-1.296.567-3.446 1.04-6.454 1.418l-5.541.68c-6.284.794-11.045 2.117-14.282 3.969-5.902 3.402-8.854 8.903-8.854 16.502 0 5.859 1.834 10.386 5.504 13.58 3.669 3.194 8.318 4.791 13.945 4.791 4.41 0 8.366-1.002 11.863-3.004a33.364 33.364 0 0 0 7.758-6.182c.113 1.399.263 2.647.453 3.742.189 1.098.529 2.269 1.021 3.516h17.578V34.93c-1.058-.491-1.853-1.115-2.381-1.871" style="fill:#fff;fill-rule:nonzero" transform="translate(1120.376 686.48) scale(4.16667)"/>
  <path style="fill:#fff" d="M548.943 219.216h16.16v83.582h-16.16z" transform="translate(-1051.63 -419.717) scale(4.16667)"/>
  <path d="M0 2.196h4.472c-.02 1.672-.444 2.883-1.273 3.631C2.371 6.576 1.324 6.95.061 6.95c-1.652 0-2.842-.533-3.573-1.6-.73-1.065-1.095-2.447-1.095-4.145 0-1.964.443-3.441 1.328-4.433.884-.991 1.974-1.487 3.269-1.487 1.092 0 1.996.238 2.713.715.717.476 1.191 1.236 1.419 2.279h1.915c-.313-1.866-1.169-3.172-2.568-3.917-.964-.519-2.108-.778-3.43-.778-1.929 0-3.5.674-4.713 2.022C-5.951-2.981-6.59-1.079-6.59 1.311c0 2.399.652 4.284 1.959 5.658C-3.432 8.065-2 8.612-.336 8.612c1.287 0 2.349-.24 3.184-.719.497-.279 1.068-.777 1.711-1.498l.466 1.838H6.27V.592H0v1.604Z" style="fill:#fff;fill-rule:nonzero" transform="translate(1392.472 530.197) scale(4.16667)"/>
  <path d="M0-10.644c-.654 0-1.244.134-1.77.404-.524.268-.981.681-1.37 1.238-.233-.453-.493-.797-.778-1.029-.505-.408-1.172-.613-2.002-.613a3.39 3.39 0 0 0-1.963.593c-.338.233-.713.606-1.128 1.117v-1.477h-1.73V0h1.749v-5.521c0-1.342.271-2.268.812-2.781.541-.511 1.143-.767 1.803-.767.727 0 1.222.243 1.488.729.168.324.252.839.252 1.545V0h1.78v-6.057c0-1.075.248-1.842.743-2.302A2.515 2.515 0 0 1-.34-9.05c.498 0 .922.13 1.269.389.346.259.52.735.52 1.429V0h1.817v-6.931c0-.921-.135-1.653-.409-2.197C2.353-10.139 1.4-10.644 0-10.644" style="fill:#fff;fill-rule:nonzero" transform="translate(1473.551 564.5) scale(4.16667)"/>
  <path d="M0 9.313c-.471.752-1.182 1.128-2.131 1.128-1.262 0-2.123-.574-2.584-1.721-.248-.609-.371-1.403-.371-2.382 0-1.354.301-2.326.902-2.916.602-.589 1.302-.884 2.102-.884.917 0 1.611.36 2.082 1.079.473.718.707 1.627.707 2.721C.707 7.57.473 8.562 0 9.313M-1.875.973c-.625 0-1.204.131-1.738.394a3.866 3.866 0 0 0-1.375 1.141v-5.181h-1.701v14.329h1.613v-1.332c.371.5.719.862 1.044 1.089.546.381 1.217.573 2.011.573 1.417 0 2.527-.544 3.327-1.633.799-1.088 1.2-2.456 1.2-4.102 0-1.737-.404-3.05-1.215-3.942C.48 1.418-.574.973-1.875.973" style="fill:#fff;fill-rule:nonzero" transform="translate(1523.089 515.934) scale(4.16667)"/>
  <path d="M0-14.28v5.901h-7.34v-5.901h-1.953V0h1.953v-6.678H0V0h1.953v-14.28H0Z" style="fill:#fff;fill-rule:nonzero" transform="translate(1579.776 564.505) scale(4.16667)"/>
</svg>
